<svg width="36" height="36" viewBox="0 0 36 36" fill="none" xmlns="http://www.w3.org/2000/svg">
<path d="M15 26V10M15 26H22.8031C23.921 26 24.48 26 24.9074 25.7822C25.2837 25.5905 25.5905 25.2837 25.7822 24.9074C26 24.48 26 23.921 26 22.8031V13.1969C26 12.079 26 11.5192 25.7822 11.0918C25.5905 10.7155 25.2837 10.4097 24.9074 10.218C24.4796 10 23.9203 10 22.8002 10H15M15 26H13.1969C12.079 26 11.5192 26 11.0918 25.7822C10.7155 25.5905 10.4097 25.2837 10.218 24.9074C10 24.4796 10 23.9203 10 22.8002V13.2002C10 12.0801 10 11.5196 10.218 11.0918C10.4097 10.7155 10.7155 10.4097 11.0918 10.218C11.5196 10 12.0801 10 13.2002 10H15" stroke="#999999" stroke-width="1.6" stroke-linecap="round" stroke-linejoin="round"/>
</svg>
