<svg width="40" height="40" viewBox="0 0 40 40" fill="none" xmlns="http://www.w3.org/2000/svg">
<rect width="40" height="40" rx="8" fill="#F0F1FF"/>
<path d="M8 13.3632C8 10.4012 10.4012 8 13.3632 8C16.3252 8 18.7264 10.4012 18.7264 13.3632V18.7264H13.3632C10.4012 18.7264 8 16.3252 8 13.3632Z" fill="#3340B0"/>
<path d="M21.2441 13.3632C21.2441 10.4012 23.6453 8 26.6073 8C29.5694 8 31.9705 10.4012 31.9705 13.3632C31.9705 16.3252 29.5694 18.7264 26.6073 18.7264H21.2441V13.3632Z" fill="#5B6CF9"/>
<path d="M8.03027 26.6369C8.03027 23.6749 10.4315 21.2737 13.3935 21.2737H18.7567V26.6369C18.7567 29.5989 16.3555 32.0001 13.3935 32.0001C10.4315 32.0001 8.03027 29.5989 8.03027 26.6369Z" fill="#5B6CF9"/>
<path d="M21.2734 21.2737H26.6366C29.5987 21.2737 31.9998 23.6749 31.9998 26.6369C31.9998 29.5989 29.5987 32.0001 26.6366 32.0001C23.6746 32.0001 21.2734 29.5989 21.2734 26.6369V21.2737Z" fill="#3340B0"/>
</svg>
