<svg width="24" height="24" viewBox="0 0 24 24" fill="none" xmlns="http://www.w3.org/2000/svg">
<path d="M0 5.33333C0 2.38781 2.38781 0 5.33333 0C8.27885 0 10.6667 2.38781 10.6667 5.33333V10.6667H5.33333C2.38782 10.6667 0 8.27885 0 5.33333Z" fill="#3340B0"/>
<path d="M13.0664 5.33333C13.0664 2.38782 15.4542 0 18.3997 0C21.3453 0 23.7331 2.38781 23.7331 5.33333C23.7331 8.27885 21.3453 10.6667 18.3997 10.6667H13.0664V5.33333Z" fill="#5B6CF9"/>
<path d="M0 18.6666C0 15.7211 2.38781 13.3333 5.33333 13.3333H10.6667V18.6666C10.6667 21.6121 8.27885 23.9999 5.33333 23.9999C2.38781 23.9999 0 21.6121 0 18.6666Z" fill="#5B6CF9"/>
<path d="M13.0664 13.3333H18.3997C21.3453 13.3333 23.7331 15.7211 23.7331 18.6666C23.7331 21.6121 21.3453 23.9999 18.3997 23.9999C15.4542 23.9999 13.0664 21.6121 13.0664 18.6666V13.3333Z" fill="#3340B0"/>
</svg>
